<?xml version="1.0" standalone="no"?>
<!DOCTYPE svg PUBLIC "-//W3C//DTD SVG 20010904//EN"
 "http://www.w3.org/TR/2001/REC-SVG-20010904/DTD/svg10.dtd">
<svg version="1.0" xmlns="http://www.w3.org/2000/svg"
 width="486.000000pt" height="486.000000pt" viewBox="0 0 486.000000 486.000000"
 preserveAspectRatio="xMidYMid meet">
<metadata>
Created by potrace 1.11, written by Peter Selinger 2001-2013
</metadata>
<g transform="translate(0.000000,486.000000) scale(0.100000,-0.100000)"
fill="#000000" stroke="none">
<path d="M3109 3465 c-77 -42 -81 -167 -6 -206 10 -6 85 -26 166 -44 495 -113
841 -302 952 -522 30 -59 34 -76 34 -143 -1 -66 -5 -83 -35 -139 -125 -232
-502 -428 -1035 -537 -10 -2 -35 -6 -55 -9 -20 -3 -47 -7 -60 -10 -256 -49
-762 -64 -1060 -30 -101 12 -269 37 -340 52 -41 8 -82 16 -90 18 -33 6 -132
34 -134 37 -2 2 -8 34 -15 72 -17 96 -61 184 -123 248 -53 55 -128 105 -166
113 -12 2 -30 8 -41 14 -11 6 -46 14 -78 17 -32 3 -64 7 -71 10 -10 3 -11 -2
-7 -19 7 -20 6 -21 -7 -4 -11 15 -22 17 -56 11 -23 -4 -42 -12 -42 -18 0 -6
-5 -4 -10 4 -6 10 -10 11 -10 2 0 -6 -3 -11 -8 -10 -10 3 -83 -27 -106 -45
-15 -11 -17 -18 -8 -33 6 -10 12 -14 13 -9 1 6 2 15 3 20 0 6 5 11 10 12 5 1
13 7 18 15 8 10 9 10 5 -2 -2 -8 -9 -14 -15 -13 -6 2 -10 -6 -9 -17 1 -13 6
-19 15 -15 7 2 10 0 7 -5 -9 -15 -43 -6 -60 16 -13 17 -14 17 -15 2 0 -11 -5
-15 -14 -12 -9 3 -17 -3 -21 -15 -3 -12 -11 -18 -17 -15 -7 4 -8 2 -4 -4 4 -7
2 -12 -3 -12 -6 0 -11 -8 -11 -17 0 -14 -2 -15 -9 -5 -7 11 -9 11 -14 -1 -3
-9 1 -18 9 -21 9 -4 18 3 24 17 6 16 9 17 9 5 1 -9 -3 -20 -9 -23 -18 -11 -11
-35 8 -28 13 5 14 3 5 -7 -13 -14 -33 -5 -33 16 0 24 -25 16 -43 -15 -17 -29
-17 -30 9 -50 32 -25 24 -28 -11 -5 -16 11 -25 12 -25 5 0 -6 7 -14 15 -17 8
-4 15 -11 15 -17 0 -7 -4 -7 -12 1 -17 17 -28 15 -28 -6 0 -10 -4 -22 -9 -27
-14 -15 -20 -106 -7 -98 6 4 5 0 -2 -9 -14 -17 -9 -87 10 -148 89 -290 401
-427 673 -294 67 33 145 101 181 158 23 37 31 43 49 36 28 -11 299 -67 360
-75 28 -3 57 -8 65 -10 23 -6 212 -25 330 -32 191 -12 603 -5 700 11 14 2 57
8 95 12 39 4 72 8 75 9 3 1 30 5 60 9 86 12 280 53 382 80 641 172 1028 497
1028 861 0 387 -435 723 -1151 889 -170 39 -201 42 -240 21z m-2254 -1105 c-3
-5 -14 -10 -23 -9 -14 0 -13 2 3 9 27 11 27 11 20 0z m-45 -4 c0 -3 -4 -8 -10
-11 -5 -3 -10 -1 -10 4 0 6 5 11 10 11 6 0 10 -2 10 -4z m101 -13 c13 -16 12
-17 -3 -4 -17 13 -22 21 -14 21 2 0 10 -8 17 -17z m-25 -18 c1 -8 -1 -17 -5
-19 -4 -3 -7 6 -7 19 0 25 8 25 12 0z m-38 -10 c-3 -3 -9 2 -12 12 -6 14 -5
15 5 6 7 -7 10 -15 7 -18z m-81 -10 c0 -8 -4 -12 -9 -9 -5 3 -6 10 -3 15 9 13
12 11 12 -6z m31 -5 c-7 -11 -15 -15 -17 -9 -2 6 3 15 10 20 20 12 21 11 7
-11z m92 -14 c0 -2 -7 -7 -16 -10 -8 -3 -12 -2 -9 4 6 10 25 14 25 6z m80 -11
c0 -2 -9 -3 -19 -2 -11 0 -18 5 -15 9 4 6 34 0 34 -7z m-207 -10 c-3 -9 -8
-14 -10 -11 -3 3 -2 9 2 15 9 16 15 13 8 -4z m66 2 c8 -10 7 -14 -2 -14 -8 0
-14 6 -14 14 0 7 1 13 2 13 2 0 8 -6 14 -13z m-139 -12 c0 -8 -2 -15 -4 -15
-2 0 -6 7 -10 15 -3 8 -1 15 4 15 6 0 10 -7 10 -15z m214 -1 c3 -8 2 -12 -4
-9 -6 3 -10 10 -10 16 0 14 7 11 14 -7z m-164 -10 c0 -2 -7 -4 -15 -4 -8 0
-15 4 -15 10 0 5 7 7 15 4 8 -4 15 -8 15 -10z m-82 -8 c-10 -7 -15 -15 -12
-18 3 -4 1 -8 -4 -12 -13 -8 -11 28 2 36 19 13 32 8 14 -6z m173 -13 c13 -16
12 -17 -3 -4 -10 7 -18 15 -18 17 0 8 8 3 21 -13z m-146 -13 c-17 -11 -26 -20
-21 -20 6 0 5 -5 -1 -11 -8 -8 -16 -8 -30 0 -16 11 -15 11 6 5 16 -4 21 -3 17
5 -4 6 0 14 8 17 9 3 14 9 12 13 -3 4 5 8 17 8 18 2 17 -1 -8 -17z m120 10 c3
-5 1 -10 -4 -10 -6 0 -11 5 -11 10 0 6 2 10 4 10 3 0 8 -4 11 -10z m-108 -41
c-9 -6 -15 -14 -12 -20 4 -5 1 -9 -4 -9 -6 0 -11 4 -11 8 0 12 22 32 35 32 5
0 2 -5 -8 -11z m187 3 c3 -5 -1 -9 -9 -9 -8 0 -12 4 -9 9 3 4 7 8 9 8 2 0 6
-4 9 -8z m-101 -35 c4 3 7 4 7 0 0 -17 -20 -14 -36 6 -19 22 -19 22 2 4 11 -9
24 -14 27 -10z m-192 -4 c13 -16 12 -17 -4 -4 -9 8 -20 11 -24 7 -4 -3 2 -13
13 -21 10 -8 14 -15 8 -15 -17 0 -37 27 -29 40 9 15 21 12 36 -7z m54 -3 c-27
-12 -43 -12 -25 0 8 5 22 9 30 9 10 0 8 -3 -5 -9z m-2 -25 c-3 -9 -8 -14 -10
-11 -3 3 -2 9 2 15 9 16 15 13 8 -4z m64 -10 c0 -8 -3 -13 -5 -10 -3 3 -10 0
-17 -5 -8 -7 -12 -5 -12 5 0 8 4 12 8 9 4 -2 10 0 14 6 9 14 12 13 12 -5z
m-97 -25 c0 -5 -4 -10 -10 -10 -5 0 -10 5 -10 10 0 6 5 10 10 10 6 0 10 -4 10
-10z m43 -7 c-4 -10 -2 -14 4 -10 5 3 10 0 10 -8 0 -11 -4 -12 -14 -4 -7 6
-21 8 -30 5 -11 -4 -8 1 7 14 31 24 31 24 23 3z m-118 -13 c3 -5 1 -10 -4 -10
-6 0 -11 5 -11 10 0 6 2 10 4 10 3 0 8 -4 11 -10z m45 -5 c0 -8 -2 -15 -4 -15
-2 0 -6 7 -10 15 -3 8 -1 15 4 15 6 0 10 -7 10 -15z m30 -30 c14 -19 14 -19
-2 -6 -10 7 -18 18 -18 24 0 6 1 8 3 6 1 -2 9 -13 17 -24z m115 16 c3 -5 2
-12 -3 -15 -5 -3 -9 1 -9 9 0 17 3 19 12 6z m-199 -9 c6 -4 4 -13 -8 -24 -10
-10 -18 -14 -18 -9 0 6 5 13 11 17 8 4 7 9 -2 15 -8 5 -9 9 -4 9 6 0 15 -4 21
-8z m49 -12 c-3 -5 -12 -10 -18 -10 -7 0 -6 4 3 10 19 12 23 12 15 0z m72 -5
c0 -8 -4 -12 -9 -9 -5 3 -6 10 -3 15 9 13 12 11 12 -6z m-103 -30 c-4 -8 -11
-12 -17 -8 -8 5 -7 8 1 11 7 2 9 9 6 14 -4 7 -2 8 4 4 6 -4 9 -13 6 -21z m61
16 c3 -5 2 -12 -3 -15 -5 -3 -9 1 -9 9 0 17 3 19 12 6z m-28 -23 c-3 -8 -6 -5
-6 6 -1 11 2 17 5 13 3 -3 4 -12 1 -19z m-14 -11 c3 -8 -1 -14 -8 -14 -7 0
-11 6 -8 14 3 7 6 13 8 13 2 0 5 -6 8 -13z m-41 -43 c-6 -12 -9 -7 -9 16 0 23
3 28 9 16 5 -9 5 -23 0 -32z m87 23 c-2 -1 -13 -9 -24 -17 -19 -14 -19 -14 -6
3 7 9 18 17 24 17 6 0 8 -1 6 -3z m-105 -43 c3 -8 2 -12 -4 -9 -6 3 -10 10
-10 16 0 14 7 11 14 -7z m32 -12 c0 -10 -6 -19 -13 -19 -8 0 -9 6 -2 19 5 10
11 18 12 18 2 0 3 -8 3 -18z m68 2 c3 -8 2 -12 -4 -9 -6 3 -10 10 -10 16 0 14
7 11 14 -7z m-54 -128 c0 -3 -4 -8 -10 -11 -5 -3 -10 -1 -10 4 0 6 5 11 10 11
6 0 10 -2 10 -4z"/>
</g>
</svg>
