<svg xmlns="http://www.w3.org/2000/svg" width="130" height="130"><path d="M87.53 83.2l-.053-.053a8.84 8.84 0 0 0-7.346-3.93 8.83 8.83 0 0 0-6.337 2.685l-22.73-13.746a8.91 8.91 0 0 0 .602-3.236c0-1.085-.195-2.152-.566-3.148L73.706 48.08c1.6 1.672 3.86 2.703 6.355 2.703 4.886 0 8.85-3.983 8.85-8.9a8.91 8.91 0 0 0-1.47-4.908l-.035-.053a8.8 8.8 0 0 0-7.33-3.93c-4.886 0-8.85 3.983-8.85 8.9a8.79 8.79 0 0 0 .602 3.201L49.24 58.767a8.85 8.85 0 0 0-6.4-2.756c-4.886 0-8.85 3.983-8.85 8.9s3.965 8.9 8.85 8.9c2.478 0 4.7-1.03 6.32-2.667L71.9 84.9c-.4.996-.602 2.08-.602 3.22 0 4.908 3.965 8.9 8.85 8.9S89 93.017 89 88.1c0-1.76-.53-3.45-1.47-4.908z" fill="#4a4a4a"/></svg>