<svg xmlns="http://www.w3.org/2000/svg" width="138" height="138"><defs><filter x="-9.2%" y="-9.2%" width="118.5%" height="118.5%" id="A"><feOffset dy="2" in="SourceAlpha"/><feGaussianBlur stdDeviation="2"/><feColorMatrix values="0 0 0 0 0 0 0 0 0 0 0 0 0 0 0 0 0 0 0.5 0" result="C"/><feMerge><feMergeNode in="C"/><feMergeNode in="SourceGraphic"/></feMerge></filter></defs><path d="M91.53 85.2l-.053-.053a8.84 8.84 0 0 0-7.346-3.93 8.83 8.83 0 0 0-6.337 2.685l-22.73-13.746a8.91 8.91 0 0 0 .602-3.236c0-1.085-.195-2.152-.566-3.148L77.706 50.08c1.61 1.672 3.86 2.703 6.355 2.703 4.886 0 8.85-3.983 8.85-8.89 0-1.76-.513-3.45-1.47-4.908l-.035-.053c-1.646-2.472-4.4-3.93-7.33-3.93-4.886 0-8.85 3.983-8.85 8.89a8.79 8.79 0 0 0 .602 3.201L53.24 60.767c-1.664-1.743-3.965-2.756-6.4-2.756-4.886 0-8.85 3.983-8.85 8.89s3.965 8.89 8.85 8.89c2.478 0 4.71-1.03 6.32-2.667L75.9 86.9c-.39.996-.602 2.08-.602 3.22 0 4.908 3.965 8.89 8.85 8.89S93 95.017 93 90.11c0-1.76-.53-3.45-1.47-4.908z" fill="#4a4a4a" filter="url(#A)"/></svg>