<svg xmlns="http://www.w3.org/2000/svg" width="138" height="138"><path d="M110.497 41.576c-3.053 1.357-6.332 2.274-9.78 2.687a17.1 17.1 0 0 0 7.486-9.436c-3.342 1.99-7 3.39-10.814 4.14-3.104-3.315-7.53-5.384-12.428-5.384-9.4 0-17.023 7.634-17.023 17.056a17.28 17.28 0 0 0 .439 3.888c-14.15-.712-26.695-7.503-35.092-17.82-1.466 2.52-2.306 5.45-2.306 8.576 0 5.917 3.006 11.137 7.574 14.195-2.704-.084-5.35-.815-7.713-2.132v.216a17.06 17.06 0 0 0 13.657 16.723 16.91 16.91 0 0 1-4.486.598 17.25 17.25 0 0 1-3.205-.3c2.167 6.774 8.454 11.705 15.903 11.844C46.883 91 39.54 93.73 31.566 93.73a33.9 33.9 0 0 1-4.064-.243c7.536 4.84 16.483 7.667 26.1 7.667 31.315 0 48.44-26 48.44-48.53 0-.74-.016-1.474-.052-2.206 3.337-2.418 6.217-5.412 8.506-8.84h0z" fill-rule="nonzero" fill="#4a4a4a"/></svg>