<svg xmlns="http://www.w3.org/2000/svg" width="138" height="138" fill="#4a4a4a" fill-rule="nonzero"><path d="M114 77.572C114 65.14 102.105 55 87.46 55S61 65.14 61 77.572s11.895 22.572 26.54 22.572c2.833 0 5.503-.326 8-1.063a3.62 3.62 0 0 1 2.266.247l6.555 3.597c.404.247.97-.165.807-.655l-1.296-5.316c-.163-.816.08-1.636.807-2.126 5.67-4.17 9.3-10.305 9.3-17.257zM77.994 74.63c-2.022 0-3.64-1.636-3.64-3.68s1.618-3.68 3.64-3.68 3.64 1.636 3.64 3.68-1.618 3.68-3.64 3.68zm17.883 0c-2.022 0-3.64-1.636-3.64-3.68s1.618-3.68 3.64-3.68 3.64 1.636 3.64 3.68-1.7 3.68-3.64 3.68zM58.114 77.9c0-13.762 13.25-24.922 29.643-24.922H89C86.347 40.528 72.936 31 56.788 31 38.655 31 24 42.9 24 57.633c0 8.145 4.555 15.473 11.676 20.36.496.324.663.895.58 1.465l-2.482 8.633c-.167.57.496 1.14 1.076.813l9.686-5.7c.663-.406 1.406-.488 2.153-.246 3.23.813 6.624 1.305 10.103 1.305.747 0 1.5 0 2.32-.082a20.13 20.13 0 0 1-.997-6.27zM67.8 45.1c2.403 0 4.388 1.953 4.388 4.316s-1.986 4.316-4.388 4.316-4.388-1.953-4.388-4.316 2-4.316 4.388-4.316zm-22.025 8.633c-2.403 0-4.388-1.953-4.388-4.316s1.986-4.316 4.388-4.316 4.388 1.953 4.388 4.316-1.902 4.316-4.388 4.316z"/></svg>