<svg xmlns="http://www.w3.org/2000/svg" width="138" height="138"><path d="M33 80.5C33 90.166 45.763 98 61.5 98S90 90.166 90 80.5 77.237 63 61.5 63 33 70.834 33 80.5" fill="#fff"/><g fill="#4a4a4a"><path d="M62.16 95.97C48.304 97.362 36.34 91 35.44 81.8c-.9-9.22 9.607-17.807 23.452-19.2 13.856-1.392 25.82 4.96 26.708 14.17.912 9.22-9.596 17.82-23.44 19.2m27.7-30.596c-1.178-.363-1.986-.597-1.374-2.165 1.34-3.405 1.478-6.34.023-8.447-2.714-3.93-10.15-3.72-18.67-.105 0 0-2.68 1.182-1.986-.96 1.305-4.27 1.1-7.84-.924-9.9-4.62-4.692-16.916.175-27.46 10.858C31.584 62.636 27 71.118 27 78.454 27 92.47 44.748 101 62.103 101 84.862 101 100 87.603 100 76.968c.012-6.435-5.335-10.085-10.138-11.595m15.493-25.103c-5.436-6.06-13.452-8.368-20.852-6.784-1.713.367-2.798 2.066-2.432 3.776a3.16 3.16 0 0 0 3.757 2.445c5.264-1.125 10.963.517 14.822 4.82s4.9 10.17 3.255 15.312c-.537 1.676.377 3.467 2.044 4.006s3.45-.38 3.985-2.043v-.01c2.33-7.22.856-15.473-4.58-21.522"/><path d="M97.265 47.55a10.51 10.51 0 0 0-10.113-3.31c-1.468.3-2.4 1.788-2.093 3.275.32 1.488 1.763 2.433 3.22 2.1 1.752-.38 3.663.173 4.95 1.615a5.32 5.32 0 0 1 1.081 5.155c-.455 1.442.32 2.998 1.752 3.47 1.433.46 2.958-.323 3.424-1.776 1.126-3.54.42-7.577-2.218-10.54M63.744 79.852c-.493.825-1.586 1.215-2.432.87-.846-.332-1.104-1.26-.623-2.063.493-.802 1.54-1.192 2.373-.87.846.298 1.15 1.226.68 2.063m-4.5 5.617c-1.363 2.12-4.288 3.05-6.485 2.075-2.162-.963-2.808-3.427-1.445-5.502 1.35-2.063 4.17-2.98 6.356-2.086 2.2.928 2.914 3.37 1.574 5.513m5.122-15.016c-6.7-1.708-14.286 1.56-17.2 7.324-2.972 5.88-.094 12.414 6.673 14.546 7.026 2.212 15.297-1.18 18.175-7.52 2.843-6.213-.705-12.597-7.648-14.35"/></g></svg>